<svg xmlns="http://www.w3.org/2000/svg" version="1.1" viewBox="-5.0 -10.0 110.0 135.0">
 <path d="m2.1758 77.172c-1.1992 0-2.1719-0.97266-2.1719-2.1719 0-6.5625-0.0039062-60.871 0-60.871 0-1.1992 0.97266-2.1719 2.1719-2.1719 16.184 0 95.652-0.003906 95.648 0 1.1992 0 2.1719 0.97266 2.1719 2.1719v60.871c0 1.1992-0.97266 2.1719-2.1719 2.1719 0.003906 0.003906-79.426 0-95.648 0zm93.477-60.871h-91.305v56.523h91.305zm-50.953 15.645 16.895 10.594c1.6328 0.56641 1.957 2.7188 0.56641 3.7305l-17.336 10.832c-1.3789 1.1719-3.5195 0.16797-3.5195-1.6641 0-3.4609-0.003907-21.738 0-21.738 0-1.8086 1.9414-2.7656 3.3984-1.75zm-16.441 51.75h39.129c2.8555-0.007812 2.8594 4.3477 0 4.3477l-36.957 0.003906c-2.8594-0.007813-2.8555-4.3516 0.003906-4.3516l-2.1758 0.003907z" fill-rule="evenodd"/>
</svg>